<?xml version="1.0" encoding="UTF-8"?>
<svg id="Layer_1" xmlns="http://www.w3.org/2000/svg" version="1.1" viewBox="0 0 2000 2000">
  <!-- Generator: Adobe Illustrator 30.3.0, SVG Export Plug-In . SVG Version: 2.1.3 Build 182)  -->
  <defs>
    <style>
      .st0 {
        fill: #fae500;
      }

      .st1 {
        fill: #f700c9;
      }
    </style>
  </defs>
  <circle class="st0" cx="1010.16" cy="983.51" r="701.41"/>
  <path class="st1" d="M1397.61,907.45c-2.64-1.59-5.3-3.1-8.02-4.53v-.03c-22.97-92.03-78.51-171.15-153.65-224.5h-.03c-14.34-10.22-29.42-19.45-45.11-27.66h-.03c-6.51-3.41-30.6-18.71-37.14-22.14-88.84-46.48-104.56-130.99-189.69-129.17-3.79.08-7.36.93-10.52,2.55-7.23,3.71-12.25,11.13-12.5,19.75-.03.14.16,2.39.55,4.78,1.15,7.34,1.76,14.75,1.18,22.14-2.99,39.26-27.66,65.25-49.53,75.25-10.27,3.1-17.47,5.69-27.36,9.59-.03,0-.03.03-.03.03h-.03c-12.64,4.97-24.97,10.6-36.92,16.84-73.98,38.46-134.12,99.86-171.04,174.75,0,.03-.03.03-.03.05s0,.05-.03.05c-6.76,13.65-12.69,27.77-17.83,42.25,0,.03-.03.05-.03.08-5.66,16.02-10.27,32.5-13.85,49.39-2.36,1.35-4.7,2.75-6.98,4.26-41.32,26.65-68.65,73.1-68.65,125.93,0,60.47,35.82,112.58,87.42,136.23,13.35,5.77,16.21,6.7,33.3,10,7.91,1.51,15.91,3.27,24.34,3.27.71,0,1.43,0,2.14-.05,29.04-.66,54.78-14.75,71.21-36.29,11.81-15.49,18.85-34.86,18.85-55.88,0-14.4-3.3-28.02-9.18-40.16-.96-1.24-1.98-2.44-3.02-3.63-.85-.96-1.73-1.92-2.64-2.86-4.07-4.26-8.54-8.1-13.35-11.48.03-2.33.74-4.51,1.92-6.29,1.26-1.9,3.08-3.38,5.19-4.26,4.78,3.16,9.26,6.76,13.35,10.71.77.77,1.57,1.54,2.34,2.34,15.91,16.59,25.71,39.09,25.71,63.87,0,29.01-13.38,54.86-34.31,71.78l-.08.08c-15.71,16.84-37.66,27.75-62.17,29.09-1.73.08-3.43.14-5.16.14-9.26,0-18.19-1.35-26.62-3.9,20.08,31.32,44.53,59.53,72.47,83.87,25.55,30.36,47.11,66.21,62.58,103.29,5.44,13.13,10.96,27.58,16.1,41.62,0,.03.03.03.03.05,1.07,2.99,2.17,5.96,3.21,8.87,4.4,8.35,12.09,14.64,21.35,17.22h.03c2.94.82,6.02,1.24,9.23,1.24,1.1,0,2.23-.05,3.32-.16h.03c15.91,1.21,32,1.81,48.27,1.81s30.85-.55,46.07-1.65h.85c2.14,0,4.23-.19,6.26-.58h.03c6.7-1.24,12.72-4.37,17.47-8.9h.03c.14-.14.3-.3.44-.44.44-.41.85-.85,1.26-1.29,5.63-6.15,9.07-14.34,9.09-23.32v-.03c2.86-11.92,3.68-19.72,3.68-36.48,0-.99,0-1.98-.05-2.94.14-.69.22-1.37.27-2.09.05-.6.05-1.21.05-1.81,0-8.96-5.11-16.73-12.55-20.55-21.37-3.82-34.61-5.33-47.31-18.65,15.96,7.75,51.45,10.74,67.53,11.04,5.3.08,41.26-.49,73.65-10.63-15.41,12.2-32.88,14.29-44.15,15.74-3.65.47-7.23.88-10.33,2.45-7.55,3.79-12.72,11.59-12.72,20.6,0,.63.03,1.24.08,1.87.14,1.65.44,3.24.91,4.78v.19c0,16.76.8,24.56,3.65,36.48v.03c.03,8.98,3.46,17.17,9.12,23.32.38.44.8.88,1.24,1.29.16.14.3.3.44.44h.03c4.75,4.53,10.77,7.66,17.47,8.9h.05c2.03.38,4.12.58,6.24.58h.85c15.22,1.1,30.58,1.65,46.1,1.65s32.33-.6,48.24-1.81h.03c1.1.11,2.23.16,3.35.16,3.19,0,6.26-.41,9.2-1.24h.03c9.26-2.58,16.95-8.87,21.37-17.22,1.04-2.91,2.12-5.88,3.19-8.87,0-.03.03-.03.03-.05,5.14-14.04,10.66-28.49,16.13-41.62,15.85-38.08,37.58-73.13,64.01-104.01t.03-.05c12.25-14.31,25.52-27.72,39.7-40.11l.03-.03c15.69-18.35,29.72-38.16,41.84-59.2-4.29.63-8.65.93-13.1.93s-8.87-.3-13.16-.93c-22.06-3.16-41.59-14.12-55.74-29.97-6.7-5.99-12.53-12.91-17.25-20.6-8.65-14.04-13.65-30.58-13.65-48.3,0-11.29,2.03-22.14,5.74-32.14,2.75-7.44,6.46-14.4,10.96-20.8,3.9-5.58,8.38-10.69,13.41-15.25,2.53.58,4.73,2.01,6.29,3.93.8.96,1.43,2.03,1.84,3.21-4.59,4.15-8.76,8.71-12.44,13.65-.27.55-.52,1.1-.77,1.65-5.49,11.79-8.54,24.92-8.54,38.74,0,46.95,35.08,85.68,80.44,91.45h.03c3.85.49,7.77.77,11.76.77,9.53,0,18.76-1.46,27.42-4.15l.03-.03c3.41-1.04,6.7-2.28,9.92-3.74.22-.08.44-.19.69-.3.85-.41,1.76-.82,2.64-1.26.52-.22,1.04-.49,1.57-.77,9.09-4.56,17.66-10.03,25.58-16.24,34.83-27.44,57.22-70,57.22-117.77,0-54.42-28.98-102.03-72.36-128.24ZM1144.29,1000.93c-3.6,6.43-7.66,12.55-12.14,18.32-27.42,35.47-70.36,58.32-118.62,58.32s-87.55-20.91-115.02-53.79c-2.88-3.43-5.63-7.03-8.19-10.74-5.19-8.79-8.13-19.07-7.97-30.05.38-30,24.37-55.08,54.31-56.76,12.91-.71,25.03,2.83,34.94,9.37,3.41,2.25,6.57,4.84,9.42,7.75,9.09,5.99,19.97,9.48,31.65,9.48,13.1,0,25.19-4.4,34.86-11.76,2.58-2.97,5.47-5.66,8.6-8.05,14.26-10.85,33.76-15.22,54.06-8.63,17.31,5.6,30.74,19.61,35.88,37.06,4.15,14.15,3.02,27.77-1.79,39.48Z"/>
</svg>