<?xml version="1.0" encoding="UTF-8"?>
<svg id="Layer_1" xmlns="http://www.w3.org/2000/svg" version="1.1" viewBox="0 0 2000 2000">
  <!-- Generator: Adobe Illustrator 30.3.0, SVG Export Plug-In . SVG Version: 2.1.3 Build 182)  -->
  <defs>
    <style>
      .st0 {
        fill: #fae500;
      }

      .st1 {
        fill: #f700c9;
      }
    </style>
  </defs>
  <circle class="st0" cx="996.12" cy="999.3" r="975.09"/>
  <path class="st1" d="M1706.21,859.89c-4.83-2.92-9.72-5.69-14.7-8.31v-.05c-42.09-168.67-143.9-313.67-281.6-411.45h-.05c-26.28-18.73-53.92-35.65-82.67-50.7h-.05c-11.93-6.24-56.09-34.29-68.07-40.58-162.83-85.19-191.63-240.06-347.66-236.74-6.95.15-13.49,1.71-19.28,4.68-13.24,6.8-22.46,20.39-22.91,36.2-.05.25.3,4.38,1.01,8.76,2.11,13.44,3.22,27.04,2.16,40.58-5.49,71.95-50.7,119.58-90.78,137.9-18.83,5.69-32.02,10.42-50.15,17.57-.05,0-.05.05-.05.05h-.05c-23.16,9.11-45.77,19.43-67.67,30.86-135.59,70.49-245.8,183.02-313.47,320.27,0,.05-.05.05-.05.1s0,.1-.05.1c-12.39,25.02-23.26,50.9-32.68,77.44,0,.05-.05.1-.05.15-10.37,29.35-18.83,59.56-25.38,90.53-4.33,2.47-8.61,5.03-12.79,7.8-75.72,48.84-125.82,133.98-125.82,230.8,0,110.82,65.65,206.33,160.21,249.68,24.47,10.57,29.71,12.28,61.02,18.33,14.5,2.77,29.15,5.99,44.61,5.99,1.31,0,2.62,0,3.93-.1,53.22-1.21,100.39-27.04,130.5-66.51,21.65-28.4,34.54-63.89,34.54-102.41,0-26.38-6.04-51.36-16.82-73.61-1.76-2.27-3.63-4.48-5.54-6.65-1.56-1.76-3.17-3.52-4.83-5.24-7.45-7.8-15.66-14.85-24.47-21.05.05-4.28,1.36-8.26,3.52-11.53,2.32-3.47,5.64-6.19,9.52-7.8,8.76,5.79,16.97,12.39,24.47,19.64,1.41,1.41,2.87,2.82,4.28,4.28,29.15,30.41,47.13,71.65,47.13,117.06,0,53.17-24.52,100.55-62.89,131.56l-.15.15c-28.8,30.86-69.03,50.85-113.94,53.32-3.17.15-6.29.25-9.47.25-16.97,0-33.33-2.47-48.79-7.15,36.8,57.4,81.61,109.11,132.82,153.71,46.82,55.64,86.35,121.34,114.69,189.31,9.97,24.07,20.09,50.55,29.5,76.28,0,.05.05.05.05.1,1.96,5.49,3.98,10.93,5.89,16.26,8.06,15.31,22.15,26.84,39.12,31.57h.05c5.39,1.51,11.03,2.27,16.92,2.27,2.01,0,4.08-.1,6.09-.3h.05c29.15,2.22,58.66,3.32,88.46,3.32s56.54-1.01,84.43-3.02h1.56c3.93,0,7.75-.35,11.48-1.06h.05c12.29-2.27,23.31-8.01,32.02-16.31h.05c.25-.25.55-.55.81-.81.81-.76,1.56-1.56,2.32-2.37,10.32-11.28,16.62-26.28,16.67-42.75v-.05c5.24-21.85,6.75-36.15,6.75-66.86,0-1.81,0-3.62-.1-5.39.25-1.26.4-2.52.5-3.83.1-1.11.1-2.22.1-3.32,0-16.41-9.36-30.66-23.01-37.66-39.17-7-63.44-9.77-86.7-34.19,29.25,14.2,94.3,19.69,123.76,20.24,9.72.15,75.62-.91,134.98-19.48-28.25,22.35-60.27,26.18-80.91,28.85-6.7.86-13.24,1.61-18.93,4.48-13.85,6.95-23.31,21.25-23.31,37.76,0,1.16.05,2.27.15,3.42.25,3.02.81,5.94,1.66,8.76v.35c0,30.71,1.46,45.01,6.7,66.86v.05c.05,16.46,6.34,31.47,16.72,42.75.7.81,1.46,1.61,2.27,2.37.3.25.55.55.81.81h.05c8.71,8.31,19.74,14.05,32.02,16.31h.1c3.73.7,7.55,1.06,11.43,1.06h1.56c27.89,2.01,56.04,3.02,84.48,3.02s59.26-1.11,88.41-3.32h.05c2.01.2,4.08.3,6.14.3,5.84,0,11.48-.75,16.87-2.27h.05c16.97-4.73,31.06-16.26,39.17-31.57,1.91-5.34,3.88-10.77,5.84-16.26,0-.05.05-.05.05-.1,9.42-25.73,19.54-52.21,29.55-76.28,29.05-69.78,68.88-134.03,117.31-190.62q.05-.05.05-.1c22.46-26.23,46.77-50.8,72.75-73.51l.05-.05c28.75-33.63,54.48-69.93,76.68-108.5-7.85,1.16-15.86,1.71-24.02,1.71s-16.26-.55-24.12-1.71c-40.43-5.79-76.23-25.88-102.16-54.93-12.29-10.98-22.96-23.66-31.62-37.76-15.86-25.73-25.02-56.04-25.02-88.51,0-20.69,3.73-40.58,10.52-58.91,5.03-13.64,11.83-26.38,20.09-38.11,7.15-10.22,15.36-19.59,24.57-27.94,4.63,1.06,8.66,3.68,11.53,7.2,1.46,1.76,2.62,3.73,3.37,5.89-8.41,7.6-16.06,15.96-22.81,25.02-.5,1.01-.96,2.01-1.41,3.02-10.07,21.6-15.66,45.67-15.66,70.99,0,86.05,64.3,157.04,147.42,167.61h.05c7.05.91,14.25,1.41,21.55,1.41,17.47,0,34.39-2.67,50.25-7.6l.05-.05c6.24-1.91,12.29-4.18,18.18-6.85.4-.15.81-.35,1.26-.55,1.56-.76,3.22-1.51,4.83-2.32.96-.4,1.91-.91,2.87-1.41,16.67-8.36,32.37-18.38,46.87-29.76,63.84-50.3,104.88-128.29,104.88-215.84,0-99.74-53.12-186.99-132.62-235.03ZM1241.95,1031.23c-6.6,11.78-14.05,23.01-22.25,33.58-50.25,65-128.94,106.89-217.4,106.89s-160.46-38.32-210.81-98.58c-5.29-6.29-10.32-12.89-15-19.69-9.52-16.11-14.9-34.94-14.6-55.08.7-54.98,44.66-100.95,99.54-104.02,23.66-1.31,45.87,5.19,64.04,17.17,6.24,4.13,12.03,8.86,17.27,14.2,16.67,10.98,36.6,17.37,58,17.37,24.02,0,46.17-8.06,63.89-21.55,4.73-5.44,10.02-10.37,15.76-14.75,26.13-19.89,61.88-27.89,99.09-15.81,31.72,10.27,56.34,35.95,65.76,67.92,7.6,25.93,5.54,50.9-3.27,72.35Z"/>
</svg>