<?xml version="1.0" encoding="UTF-8"?>
<svg id="Layer_1" xmlns="http://www.w3.org/2000/svg" version="1.1" viewBox="0 0 2000 2000">
  <!-- Generator: Adobe Illustrator 30.3.0, SVG Export Plug-In . SVG Version: 2.1.3 Build 182)  -->
  <defs>
    <style>
      .st0 {
        fill: #fae500;
      }

      .st1 {
        fill: #fff;
      }
    </style>
  </defs>
  <g>
    <path class="st1" d="M477.08,965.74c-.96-.58-1.93-1.13-2.92-1.65h0c-8.36-33.48-28.56-62.26-55.88-81.66,0,0,0,0,0,0-5.22-3.71-10.7-7.07-16.41-10.06h0c-2.37-1.24-11.13-6.8-13.51-8.05-32.31-16.91-38.02-47.65-68.99-46.98-1.38.03-2.68.33-3.83.92-2.63,1.35-4.46,4.05-4.55,7.19,0,.05.07.87.2,1.74.42,2.66.64,5.36.43,8.05-1.1,14.28-10.07,23.73-18.02,27.37-3.73,1.13-6.35,2.06-9.95,3.48,0,0,0,0-.01,0h0c-4.6,1.81-9.08,3.86-13.43,6.13-26.9,13.99-48.78,36.32-62.21,63.56,0,0,0,.01,0,.02s0,.01-.01.02c-2.46,4.97-4.61,10.1-6.48,15.37,0,0,0,.01,0,.02-2.06,5.83-3.74,11.82-5.04,17.97-.86.5-1.71,1-2.54,1.55-15.02,9.69-24.97,26.59-24.97,45.8,0,21.99,13.03,40.95,31.79,49.55,4.86,2.1,5.89,2.44,12.11,3.64,2.88.55,5.79,1.19,8.85,1.19.26,0,.52,0,.79-.01,10.56-.24,19.91-5.37,25.89-13.2,4.3-5.64,6.86-12.68,6.86-20.32,0-5.24-1.2-10.19-3.34-14.61-.35-.45-.72-.89-1.1-1.32-.31-.35-.63-.71-.96-1.04-1.48-1.55-3.1-2.94-4.85-4.18,0-.85.26-1.63.7-2.29.46-.69,1.12-1.23,1.89-1.55,1.74,1.15,3.36,2.46,4.86,3.9.28.28.57.56.85.85,5.79,6.03,9.35,14.22,9.35,23.23,0,10.55-4.86,19.96-12.47,26.1l-.04.03c-5.71,6.12-13.7,10.09-22.61,10.58-.62.03-1.25.05-1.88.05-3.36,0-6.61-.5-9.68-1.42,7.31,11.38,16.2,21.65,26.36,30.5,9.29,11.05,17.13,24.09,22.76,37.58,1.99,4.77,4,10.03,5.86,15.13,0,0,0,.01,0,.02.39,1.09.79,2.16,1.17,3.23,1.6,3.03,4.4,5.32,7.77,6.26h.01c1.06.3,2.19.45,3.35.45.41,0,.81-.02,1.21-.06h0c5.79.43,11.65.66,17.55.66s11.23-.2,16.76-.6c.1,0,.21,0,.31,0,.77,0,1.53-.07,2.27-.21h.01c2.44-.45,4.63-1.59,6.36-3.24h0c.05-.05.11-.11.16-.16.16-.15.31-.31.45-.47,2.06-2.23,3.3-5.21,3.31-8.48h0c1.04-4.34,1.34-7.18,1.34-13.27,0-.36,0-.72-.01-1.08.05-.24.07-.5.1-.75.02-.22.03-.44.03-.66,0-3.26-1.86-6.08-4.57-7.47-7.77-1.39-12.59-1.94-17.21-6.79,5.81,2.82,18.72,3.91,24.56,4.02,1.93.03,15.01-.18,26.79-3.87-5.6,4.44-11.95,5.2-16.05,5.72-1.34.18-2.63.33-3.76.9-2.74,1.38-4.62,4.21-4.62,7.49,0,.23,0,.45.03.68.05.6.16,1.18.33,1.74v.07c0,6.09.3,8.93,1.34,13.26h0c0,3.28,1.25,6.26,3.31,8.49.14.16.29.33.45.47.05.05.11.11.16.16h0c1.73,1.64,3.92,2.79,6.36,3.24h.01c.74.14,1.5.21,2.27.21.1,0,.21,0,.31,0,5.53.4,11.12.6,16.76.6s11.76-.22,17.55-.66h0c.4.04.81.06,1.21.06,1.16,0,2.29-.16,3.35-.45h.01c3.36-.94,6.17-3.23,7.77-6.26.38-1.06.77-2.14,1.17-3.23,0,0,0-.01,0-.02,1.87-5.1,3.87-10.36,5.86-15.13,5.77-13.86,13.67-26.6,23.29-37.84h.01c4.46-5.22,9.28-10.1,14.43-14.61h0c5.7-6.68,10.81-13.88,15.22-21.54-1.56.22-3.15.34-4.77.34s-3.22-.12-4.79-.34c-8.02-1.15-15.13-5.13-20.27-10.91-2.44-2.17-4.56-4.69-6.27-7.49-3.15-5.11-4.97-11.12-4.97-17.57,0-4.11.74-8.05,2.1-11.69,1-2.71,2.35-5.24,3.98-7.57,1.42-2.02,3.05-3.88,4.88-5.54.92.21,1.72.73,2.29,1.43.28.35.52.74.66,1.17-1.67,1.51-3.19,3.17-4.52,4.97-.1.2-.2.4-.28.6-1.99,4.29-3.1,9.06-3.1,14.09,0,17.07,12.75,31.16,29.25,33.26h0c1.4.18,2.83.27,4.27.27,3.47,0,6.82-.53,9.97-1.51,0,0,.01,0,.01,0,1.23-.38,2.44-.83,3.61-1.36.08-.03.16-.07.24-.11.32-.15.64-.3.96-.45.19-.09.38-.18.57-.28,3.31-1.66,6.42-3.64,9.31-5.91,12.67-9.98,20.81-25.46,20.81-42.83,0-19.79-10.54-37.11-26.32-46.64ZM384.94,999.74c-1.31,2.33-2.79,4.56-4.42,6.67-9.96,12.9-25.59,21.21-43.15,21.21s-31.84-7.6-41.83-19.56c-1.05-1.25-2.05-2.56-2.98-3.91-1.89-3.2-2.95-6.93-2.9-10.94.15-10.9,8.87-20.03,19.76-20.64,4.7-.26,9.1,1.03,12.71,3.41,1.24.82,2.39,1.76,3.43,2.82,3.3,2.17,7.26,3.44,11.51,3.44,4.77,0,9.16-1.59,12.68-4.27.94-1.08,1.98-2.06,3.12-2.92,5.19-3.95,12.28-5.54,19.67-3.14,6.29,2.04,11.18,7.14,13.04,13.48,1.51,5.15,1.11,10.09-.65,14.36Z"/>
    <g>
      <path class="st0" d="M563.3,1075.4c-1.01-1.69-1.52-4.06-1.52-7.1l.25-56.3v-12.17c0-6.42.25-12.26.76-17.5l.76-30.94c0-3.55.08-8.83.25-15.85.17-7.01.34-11.45.51-13.31.17-1.35.25-3.72.25-7.1,0-5.92-.25-10.14-.76-12.68-.17-.34-.25-.76-.25-1.27,0-1.01.93-1.77,2.79-2.28,1.69-.51,6.17-1.22,13.44-2.16,7.27-.93,13.86-1.39,19.78-1.39,16.06,0,28.78,3.21,38.17,9.64,9.38,6.43,14.08,18.6,14.08,36.52,0,16.23-4.91,28.91-14.71,38.04-4.4,3.72-9.22,6.51-14.46,8.37,9.8,3.55,19.91,9.51,30.31,17.88,10.4,8.37,15.6,20.84,15.6,37.41,0,10.82-3.85,18.73-11.54,23.71-7.7,4.99-15.47,7.95-23.33,8.88-7.86.93-16.1,1.39-24.73,1.39l-24.6.51-15.47.25c-2.71,0-4.57-.85-5.58-2.54ZM640.15,1064.37c8.28-5.33,12.43-12.47,12.43-21.43,0-22.66-9.72-38.04-29.17-46.16-8.62-3.21-18.35-4.73-29.16-4.57-.17.51-.25,1.18-.25,2.03-.17.85-.25,2.79-.25,5.83l.51,16.23.51,13.69c0,2.37-.09,4.06-.25,5.07l-.25,6.59.51,14.96.51,11.67c0,2.03.38,3.26,1.14,3.68.76.42,1.86.59,3.3.51,1.43-.08,2.49-.13,3.17-.13,16.57,0,28.99-2.66,37.28-7.99ZM612,981.82c7.1-1.86,13.95-5.83,20.54-11.92,6.59-6.09,9.89-14.88,9.89-26.38,0-12.17-2.12-21.22-6.34-27.14-4.23-5.92-9.51-9.68-15.85-11.29-6.34-1.6-14.42-2.41-24.22-2.41l-.51,16.23c-.34,12.17-.51,21.22-.51,27.14v28.91c0,1.69-.09,3.17-.25,4.44-.17,1.27-.25,2.24-.25,2.92,0,1.01.08,1.65.25,1.9.17.25.67.38,1.52.38,3.38,0,8.62-.93,15.72-2.79Z"/>
      <path class="st0" d="M694.67,1071.6c-7.44-4.9-11.16-13.61-11.16-26.12.84-8.12,6.85-14.11,18.01-18.01,11.16-3.89,23.67-5.83,37.53-5.83,4.39,0,9.64-.34,15.72-1.01,6.09-.67,11.67-1.01,16.74-1.01-.68-18.26-1.82-32.59-3.42-42.99-1.61-10.4-4.31-18.22-8.12-23.46-3.8-5.24-9.17-7.86-16.1-7.86-5.07,0-9.89,1.18-14.46,3.55-4.57,2.37-10.23,6.09-16.99,11.16l-8.37,6.09c-.17,0-.72.3-1.65.89-.93.59-1.82.8-2.66.63-1.52-.34-2.28-1.1-2.28-2.28-.68-1.01-1.48-3.3-2.41-6.85-.93-3.55-1.39-6.09-1.39-7.61,0-1.01,1.01-2.19,3.04-3.55,8.62-6.42,15.93-11.2,21.94-14.33,6-3.13,11.16-5.11,15.47-5.96,4.31-.84,9.34-1.27,15.09-1.27,16.91,0,28.28,5.45,34.11,16.36,5.83,10.91,8.75,25.4,8.75,43.49,0,4.74-.17,11.16-.51,19.27,0,4.91-.34,12.09-1.01,21.56l-.25,6.09.25,14.96c.34,6.76.51,11.92.51,15.47l-.25,7.61c-.34,3.89-1.86,5.83-4.57,5.83l-2.03-.25h-10.4c-.68,0-1.31-.29-1.9-.89-.59-.59-.89-1.31-.89-2.16v-2.03c-10.14,2.88-18.26,4.91-24.35,6.09-6.09,1.18-13.53,1.77-22.32,1.77-12.34,0-22.23-2.45-29.67-7.35ZM771.01,1055.37l.76-23.59c-7.95-.67-14.8-1.01-20.54-1.01l-14.96.25c-8.12,0-15.39,1.56-21.81,4.69-6.43,3.13-9.89,7.48-10.4,13.06,0,6.09,1.43,10.23,4.31,12.43,2.87,2.2,8.28,3.3,16.23,3.3,18.09,0,33.56-3.04,46.41-9.13Z"/>
      <path class="st0" d="M837.58,1074.26c-3.97-1.94-6.59-4.73-7.86-8.37-1.27-3.63-1.9-8.5-1.9-14.58l.25-16.23c.17-2.87.25-7.69.25-14.46l-.25-29.67c-.17-2.54-.25-5.24-.25-8.12-.17-3.21-.21-6.8-.13-10.78.08-3.97.13-7.65.13-11.03v-21.56h-9.64c-.85,0-1.44-.17-1.77-.51-.34-.34-.51-.59-.51-.76-.17-1.35-.25-2.96-.25-4.82,0-1.35.17-2.87.51-4.57h11.67l.25-1.77.25-9.64v-10.91c-.17-4.06.13-6.8.89-8.24.76-1.43,1.9-2.16,3.42-2.16.84,0,1.52.09,2.03.25,1.35.17,2.83.21,4.44.13,1.6-.08,3.08-.13,4.44-.13h6.34c4.4,0,7.44.09,9.13.25,1.86.17,3.17.59,3.93,1.27.76.68,1.14,1.69,1.14,3.04,0,.51-.17,2.45-.51,5.83-.17,1.01-.47,3.34-.89,6.97-.42,3.64-.8,8.5-1.14,14.58l19.27.25h1.27c2.37,0,3.63.51,3.8,1.52l.51,4.82c.17,1.18.29,1.52.38,1.01.08-.51.13-.34.13.51,0,.68-.21,1.27-.63,1.78-.42.51-.89.76-1.39.76l-5.83.25c-5.58.51-11.41.76-17.5.76v25.61c.17,4.23.25,10.14.25,17.75l-.25,22.32.51,10.14c.51,12.17.76,18.35.76,18.51v5.07c0,3.38.46,5.79,1.39,7.23.93,1.44,2.32,2.16,4.18,2.16,4.22,0,7.18-.13,8.88-.38,1.69-.25,3.13-.38,4.31-.38.67,0,1.27.76,1.78,2.28.51,1.52.84,2.71,1.01,3.55l2.03,7.35c.67,2.54,1.52,4.65,2.54,6.34.17.17.25.42.25.76,0,.68-.42,1.44-1.27,2.28-4.57,2.88-9.13,4.69-13.7,5.45-4.56.76-10.74,1.14-18.51,1.14s-14.16-.97-18.13-2.92Z"/>
      <path class="st0" d="M915.06,1069.06c-7.27-6.59-10.91-17.92-10.91-33.98s4.86-26.71,14.58-32.97c9.72-6.25,20.84-10.06,33.35-11.41l11.92-1.52c7.95-1.18,13.95-1.78,18.01-1.78v-3.3l-1.27-13.19c-.85-8.12-2.54-13.48-5.07-16.1-2.54-2.62-6-3.93-10.4-3.93-3.21,0-8.96,1.9-17.25,5.71-8.29,3.8-16.48,8.5-24.6,14.08-.17.17-.51.25-1.01.25-.68,0-1.44-.59-2.28-1.78-1.35-2.03-2.45-4.82-3.3-8.37-.34-1.52-1.06-3.3-2.16-5.33-1.1-2.03-1.65-3.55-1.65-4.57s1.01-2.19,3.04-3.55c9.47-6.25,17.29-10.91,23.46-13.95,6.17-3.04,11.54-5.07,16.1-6.09,4.57-1.01,9.72-1.52,15.47-1.52,18.09,0,31.36,6.26,39.82,18.77,1.69,2.54,3.04,5.33,4.06,8.37,1.01,3.04,1.9,5.96,2.66,8.75.76,2.79,1.22,4.61,1.39,5.45,2.7,11.16,3.8,23.76,3.3,37.79,0,12.51-.17,21.73-.51,27.64,0,3.55.34,8.88,1.01,15.98.67,7.78.93,13.78.76,18.01l.25,3.04c0,3.89-1.52,5.83-4.56,5.83-2.03,0-5.92.17-11.67.51-5.75.34-9.89.51-12.43.51-1.69,0-3.21.08-4.57.25-1.35.17-2.62.25-3.8.25-.68,0-1.31-.3-1.9-.89-.59-.59-.89-1.31-.89-2.16l-.51-3.04c-.17-.17-.3-.51-.38-1.01-.09-.51-.3-.93-.63-1.27-9.47,6.93-21.98,10.4-37.53,10.4-12.68,0-22.66-3.3-29.93-9.89ZM965.02,1052.33c6.93-1.69,12.59-4.06,16.99-7.1l-.51-20.29c-5.75-1.01-10.11-1.65-13.06-1.9-2.96-.25-7.48-.38-13.57-.38-7.27,0-14.16,1.36-20.67,4.06-6.51,2.71-10.02,8.46-10.53,17.25-.34,2.88.93,5.41,3.8,7.61,2.87,2.2,7.86,3.3,14.96,3.3,8.12,0,15.64-.84,22.57-2.54Z"/>
      <path class="st0" d="M1060.89,1074.14c-3.38-2.03-5.58-4.86-6.59-8.5-1.01-3.63-1.52-8.58-1.52-14.84l.25-15.72,1.27-29.93.76-22.32v-37.03c-8.12,0-12.77-1.35-13.95-4.06-.51-1.35-.76-2.79-.76-4.31,0-1.69.13-3.3.38-4.82.25-1.52.38-2.96.38-4.31,3.04.17,7.69.25,13.95.25l.25-1.01.25-9.64v-10.91c-.17-4.06.13-6.8.89-8.24.76-1.43,1.9-2.16,3.42-2.16.84,0,1.52.09,2.03.25h.51c.34,0,.93-.04,1.78-.13.84-.08,1.6.04,2.28.38,3.38.51,5.07,1.95,5.07,4.31,0,.51-.17,2.45-.51,5.83-.85,5.92-1.44,13.02-1.77,21.3h24.35c1.35,0,2.45,1.14,3.3,3.42.84,2.28,1.27,4.69,1.27,7.23,0,3.38-.76,5.33-2.28,5.83-3.21,1.01-7.1,1.52-11.67,1.52-4.06,0-9.13-.34-15.22-1.01v60.11l-.25,10.14c-.51,6.59-.76,13.44-.76,20.54v5.07c0,5.41,1.18,9.43,3.55,12.05,2.37,2.62,5.49,3.93,9.38,3.93s6.93-.13,9.64-.38c2.7-.25,4.65-.38,5.83-.38,1.86,0,2.79,3.3,2.79,9.89l1.01,4.06c.51,1.19.42,1.86-.25,2.03-5.41,2.03-9.43,3.3-12.05,3.8-2.62.51-6.55.76-11.79.76-6.76,0-11.84-1.01-15.22-3.04Z"/>
      <path class="st0" d="M1124.28,1071.6c-7.44-4.9-11.16-13.61-11.16-26.12.84-8.12,6.85-14.11,18.01-18.01,11.16-3.89,23.67-5.83,37.53-5.83,4.39,0,9.64-.34,15.72-1.01,6.09-.67,11.67-1.01,16.74-1.01-.68-18.26-1.82-32.59-3.42-42.99-1.61-10.4-4.31-18.22-8.12-23.46-3.8-5.24-9.17-7.86-16.1-7.86-5.07,0-9.89,1.18-14.46,3.55-4.57,2.37-10.23,6.09-16.99,11.16l-8.37,6.09c-.17,0-.72.3-1.65.89-.93.59-1.82.8-2.66.63-1.52-.34-2.28-1.1-2.28-2.28-.68-1.01-1.48-3.3-2.41-6.85-.93-3.55-1.39-6.09-1.39-7.61,0-1.01,1.01-2.19,3.04-3.55,8.62-6.42,15.93-11.2,21.94-14.33,6-3.13,11.16-5.11,15.47-5.96,4.31-.84,9.34-1.27,15.09-1.27,16.91,0,28.28,5.45,34.11,16.36,5.83,10.91,8.75,25.4,8.75,43.49,0,4.74-.17,11.16-.51,19.27,0,4.91-.34,12.09-1.01,21.56l-.25,6.09.25,14.96c.34,6.76.51,11.92.51,15.47l-.25,7.61c-.34,3.89-1.86,5.83-4.57,5.83l-2.03-.25h-10.4c-.68,0-1.31-.29-1.9-.89-.59-.59-.89-1.31-.89-2.16v-2.03c-10.14,2.88-18.26,4.91-24.35,6.09-6.09,1.18-13.53,1.77-22.32,1.77-12.34,0-22.23-2.45-29.67-7.35ZM1200.62,1055.37l.76-23.59c-7.95-.67-14.8-1.01-20.54-1.01l-14.96.25c-8.12,0-15.39,1.56-21.81,4.69-6.43,3.13-9.89,7.48-10.4,13.06,0,6.09,1.43,10.23,4.31,12.43,2.87,2.2,8.28,3.3,16.23,3.3,18.09,0,33.56-3.04,46.41-9.13Z"/>
      <path class="st0" d="M1323.37,1067.54l.25-6.59-.51-12.68-.25-11.41-.25-7.61c-.68-8.79-1.01-18.77-1.01-29.93,0-6.59.34-15.3,1.01-26.12.67-10.82,1.01-19.69,1.01-26.63l-.25-33.98c-.17-2.7-.25-5.75-.25-9.13,0-1.86,1.22-3,3.68-3.42,2.45-.42,5.03-.59,7.74-.51,2.7.09,4.56.13,5.58.13l9.13-.51c7.1-.34,12.85-.51,17.25-.51,10.31,0,21.3,2.75,32.97,8.24,11.67,5.5,21.89,15.51,30.69,30.05,8.79,14.54,13.19,34.32,13.19,59.34,0,22.83-5.45,40.11-16.36,51.86-10.91,11.75-22.36,19.27-34.36,22.57-12.01,3.3-21.98,4.95-29.93,4.95l-20.8.25c-3.72.17-8.29.25-13.7.25-3.21,0-4.82-2.87-4.82-8.62ZM1379.67,1012.76c8.45-8.12,12.68-17.75,12.68-28.91s-4.06-19.19-12.17-25.61c-3.55-2.7-7.52-4.73-11.92-6.09.34,3.72.51,6.59.51,8.62,0,3.21-.17,7.86-.51,13.95-.34,5.75-.51,9.98-.51,12.68,0,4.4-.17,11.5-.51,21.3-.17,2.88-.25,7.27-.25,13.19,4.57-2.19,8.79-5.24,12.68-9.13Z"/>
      <path class="st0" d="M1473.5,1056c-7.44-17.16-11.16-35.54-11.16-55.16s2.87-34.11,8.62-45.52c5.75-11.41,12.72-19.4,20.92-23.97,8.2-4.57,16.44-6.85,24.73-6.85,15.55,0,27.3,4.1,35.25,12.3,7.94,8.2,13.02,17.92,15.22,29.17,2.2,11.25,3.3,23.88,3.3,37.91,0,11.33-1.9,23.04-5.71,35.13-3.8,12.09-9.64,22.23-17.5,30.43-7.86,8.2-17.54,12.3-29.04,12.3-22.32,0-37.2-8.58-44.64-25.74ZM1528.67,1024.68c2.62-5.24,3.93-11.58,3.93-19.02,0-9.64-1.23-16.44-3.68-20.42-2.45-3.97-6.13-5.96-11.03-5.96-10.49,0-15.72,9.47-15.72,28.4,0,7.1.93,13.02,2.79,17.75,1.86,4.74,5.66,7.1,11.41,7.1s9.68-2.62,12.3-7.86Z"/>
      <path class="st0" d="M1621.74,1072.49c-8.54-4.99-15.81-13.4-21.81-25.23-6-11.83-9-27.3-9-46.41,0-29.76,5.62-50.04,16.86-60.87,11.24-10.82,23.8-16.23,37.66-16.23s23.08,2.12,29.67,6.34c6.59,4.23,11.12,8.08,13.57,11.54,2.45,3.47,4.01,5.62,4.69,6.47,1.52,1.69,2.28,3.04,2.28,4.06,0,.85-.34,1.61-1.01,2.28s-1.36,1.18-2.03,1.52c-.68.34-1.27.68-1.78,1.01-1.18.51-5.07,2.79-11.67,6.85-6.43,3.89-10.06,6-10.91,6.34l-2.03.51c-1.01,0-1.9-.55-2.66-1.65-.76-1.1-1.31-1.9-1.65-2.41-1.52-2.37-3-4.27-4.44-5.71-1.44-1.43-3.42-2.16-5.96-2.16-5.24,0-9.38,2.96-12.43,8.88-3.04,5.92-4.57,16.4-4.57,31.45,0,8.79.72,15.98,2.16,21.56,1.43,5.58,3.17,9.6,5.2,12.05,2.03,2.45,4.06,3.68,6.09,3.68,2.7,0,4.86-.63,6.47-1.9,1.6-1.27,3-3.68,4.18-7.23,1.01-3.38,2.87-5.07,5.58-5.07.84,0,1.86.17,3.04.51,1.18.34,1.94.51,2.28.51,2.7.85,6.51,1.82,11.41,2.92,4.9,1.1,9.38,1.99,13.44,2.66,1.01.17,1.69.68,2.03,1.52.34.85.51,2.03.51,3.55s-.09,2.62-.25,3.3c-.17,2.03-.68,4.48-1.52,7.35-8.79,23.67-24.85,35.51-48.19,35.51-8.29,0-16.7-2.5-25.23-7.48Z"/>
      <path class="st0" d="M1728.41,1057.24c-8.96-14.54-13.44-34.07-13.44-58.58,0-12.68,2.66-24.73,7.99-36.14,5.33-11.41,12.59-20.58,21.81-27.52,9.21-6.93,19.4-10.4,30.56-10.4,13.52,0,24.43,4.56,32.72,13.69,8.28,9.13,14.16,20.67,17.63,34.62,3.46,13.95,5.2,28.62,5.2,44,.17,1.18-.25,1.95-1.27,2.28-1.01.34-3.04.51-6.09.51-5.41-.34-9.81-.51-13.19-.51-5.58,0-12.93.17-22.06.51l-6.59.25h-8.62c-12.01,0-24.23-.15-27.94-.33-.38,9.28,3.12,21.11,7.38,24.9,7.96,7.07,20.35,12.97,33.89,9.66,11.16-2.73,12.18-6.31,23.38-15.56.17-.17.42-.25.76-.25.84,0,7.8,5.47,9.07,6.56,1.27,1.1,2.24,1.9,2.92,2.41,1.86,1.18,3.21,2.12,4.06,2.79.84.68,1.35,1.61,1.52,2.79-4.74,6.93-11.71,13.02-20.92,18.26-9.22,5.24-18.89,7.86-29.04,7.86-24.18,0-40.75-7.27-49.71-21.81ZM1799.73,996.03c4.48-.25,1.64.05,8.24-.63-1.23-12.87-6.29-24.27-10.89-30.67-4.35-6.06-11.14-10.63-21.36-10.82-9.02-.17-20.01,4.95-25.4,16.03-2,4.11-4.63,13.86-5.3,26.03,1.18,0,7.7-.02,11.42-.19l28.53.5c4.56,0,10.29,0,14.77-.25Z"/>
    </g>
  </g>
  <g>
    <polygon class="st1" points="570.74 826.44 570.74 840.96 595.19 840.96 595.19 848.98 570.74 848.98 570.74 871.89 561.95 871.89 561.95 818.42 596.48 818.42 596.48 826.44 570.74 826.44"/>
    <path class="st1" d="M634.48,843.32c-1.5-2.75-3.56-4.91-6.18-6.48-2.63-1.58-5.65-2.37-9.06-2.37s-6.71.84-9.58,2.52c-2.88,1.68-5.16,3.96-6.84,6.83-1.68,2.88-2.52,6.13-2.52,9.74s.86,6.87,2.57,9.78c1.7,2.9,4.02,5.18,6.95,6.83,2.92,1.66,6.22,2.48,9.88,2.48,2.85,0,5.56-.53,8.1-1.6,2.54-1.08,4.71-2.66,6.49-4.74l-5.35-5.43c-1.12,1.28-2.47,2.25-4.08,2.91-1.61.66-3.35.99-5.23.99-2.19,0-4.12-.47-5.8-1.41-1.68-.94-2.98-2.28-3.9-4.01-.44-.82-.77-1.71-1-2.67h27.35c.15-.76.26-1.47.35-2.11.07-.63.11-1.26.11-1.86,0-3.52-.75-6.65-2.26-9.41ZM608.95,849.81c.21-.87.51-1.66.9-2.4.87-1.66,2.09-2.94,3.67-3.86,1.58-.92,3.43-1.37,5.57-1.37s3.76.41,5.16,1.22c1.39.81,2.48,1.98,3.25,3.51.43.86.75,1.82.97,2.9h-19.51Z"/>
    <path class="st1" d="M655.45,872.65c-2.04,0-4-.27-5.88-.8-1.88-.53-3.62-1.3-5.19-2.29s-2.95-2.2-4.12-3.63l5.35-5.35c1.27,1.48,2.74,2.59,4.39,3.32,1.65.74,3.53,1.11,5.61,1.11,1.88,0,3.31-.28,4.28-.84.97-.56,1.45-1.37,1.45-2.44s-.46-1.99-1.37-2.6c-.92-.61-2.1-1.13-3.55-1.57-1.45-.43-2.98-.88-4.58-1.34-1.6-.46-3.13-1.08-4.58-1.87-1.45-.79-2.64-1.87-3.55-3.25s-1.37-3.16-1.37-5.35c0-2.34.55-4.35,1.64-6.03,1.09-1.68,2.65-2.98,4.66-3.9,2.01-.92,4.42-1.37,7.22-1.37,2.95,0,5.56.52,7.83,1.57,2.27,1.04,4.16,2.61,5.69,4.7l-5.35,5.35c-1.07-1.32-2.29-2.32-3.67-2.98-1.37-.66-2.95-.99-4.74-.99-1.68,0-2.98.26-3.9.76-.92.51-1.37,1.25-1.37,2.22,0,1.02.46,1.81,1.37,2.37.92.56,2.1,1.04,3.55,1.45s2.98.85,4.58,1.34c1.6.49,3.13,1.15,4.58,1.99,1.45.84,2.64,1.96,3.55,3.36.92,1.4,1.37,3.22,1.37,5.46,0,3.57-1.25,6.39-3.74,8.48-2.5,2.09-5.88,3.13-10.16,3.13Z"/>
    <polygon class="st1" points="699.07 835.23 699.07 842.86 690.28 842.86 690.28 871.89 681.88 871.89 681.88 842.86 673.1 842.86 673.1 835.23 681.88 835.23 681.88 819.95 690.28 819.95 690.28 835.23 699.07 835.23"/>
    <path class="st1" d="M709.46,828.5c-1.43,0-2.61-.48-3.55-1.45-.94-.97-1.41-2.16-1.41-3.59s.47-2.62,1.41-3.59,2.13-1.45,3.55-1.45,2.67.48,3.59,1.45,1.37,2.17,1.37,3.59-.46,2.62-1.37,3.59c-.92.97-2.11,1.45-3.59,1.45ZM705.25,871.89v-36.66h8.4v36.66h-8.4Z"/>
    <polygon class="st1" points="757.04 835.23 740.31 871.89 735.43 871.89 718.69 835.23 728.02 835.23 738.03 858.68 748.1 835.23 757.04 835.23"/>
    <path class="st1" d="M787.37,835.23v4.08c-1.05-1.22-2.32-2.24-3.79-3.05-2.16-1.19-4.64-1.79-7.44-1.79-3.32,0-6.31.86-8.98,2.55-2.68,1.71-4.78,4-6.34,6.88-1.56,2.87-2.33,6.12-2.33,9.74s.77,6.78,2.33,9.66c1.56,2.88,3.66,5.15,6.34,6.83,2.67,1.69,5.66,2.52,8.98,2.52,2.8,0,5.29-.6,7.48-1.79,1.46-.8,2.71-1.79,3.75-2.99v4.02h8.4v-36.67h-8.4ZM785.04,861.58c-1.91,2.09-4.42,3.14-7.52,3.14-2.05,0-3.84-.48-5.38-1.42-1.56-.95-2.78-2.26-3.67-3.94-.89-1.68-1.33-3.61-1.33-5.8s.45-4.12,1.33-5.8c.9-1.68,2.12-2.99,3.67-3.94,1.55-.94,3.34-1.41,5.38-1.41s3.91.48,5.46,1.41c1.56.95,2.76,2.26,3.63,3.94.87,1.68,1.29,3.61,1.29,5.8,0,3.26-.96,5.93-2.86,8.02Z"/>
    <path class="st1" d="M805.09,871.89v-55h8.4v55h-8.4Z"/>
    <path class="st1" d="M859.86,872.65c-4.02,0-7.64-.92-10.85-2.75-3.21-1.83-5.74-4.34-7.6-7.52-1.86-3.18-2.79-6.79-2.79-10.81v-33.15h8.78v33.07c0,2.6.55,4.85,1.64,6.76,1.09,1.91,2.58,3.39,4.47,4.43,1.88,1.04,4,1.57,6.34,1.57s4.51-.52,6.34-1.57c1.83-1.04,3.28-2.52,4.35-4.43s1.6-4.14,1.6-6.68v-33.15h8.78v33.23c0,4.02-.92,7.61-2.75,10.77-1.83,3.16-4.33,5.65-7.49,7.49-3.16,1.83-6.77,2.75-10.85,2.75Z"/>
    <path class="st1" d="M924.32,848.9v22.99h-8.4v-21.16c0-2.44-.78-4.45-2.33-6.03-1.56-1.58-3.55-2.37-6-2.37-1.63,0-3.08.36-4.36,1.07-1.27.71-2.27,1.71-2.98,2.98-.71,1.27-1.07,2.72-1.07,4.35v21.16h-8.4v-36.67h8.4v4.14c1.01-1.2,2.22-2.22,3.63-3.03,2.16-1.25,4.59-1.87,7.29-1.87s5.2.7,7.34,2.1c2.14,1.4,3.82,3.22,5.04,5.43,1.22,2.22,1.83,4.52,1.83,6.91Z"/>
    <path class="st1" d="M937.16,828.5c-1.43,0-2.61-.48-3.55-1.45-.94-.97-1.41-2.16-1.41-3.59s.47-2.62,1.41-3.59,2.13-1.45,3.55-1.45,2.67.48,3.59,1.45,1.37,2.17,1.37,3.59-.46,2.62-1.37,3.59c-.92.97-2.11,1.45-3.59,1.45ZM932.96,871.89v-36.66h8.4v36.66h-8.4Z"/>
    <polygon class="st1" points="984.75 835.23 968.01 871.89 963.12 871.89 946.4 835.23 955.71 835.23 965.73 858.68 975.81 835.23 984.75 835.23"/>
    <path class="st1" d="M1020.3,843.32c-1.51-2.75-3.56-4.91-6.19-6.48-2.63-1.58-5.64-2.37-9.05-2.37s-6.71.84-9.59,2.52c-2.87,1.68-5.15,3.96-6.83,6.83-1.69,2.88-2.52,6.13-2.52,9.74s.86,6.87,2.55,9.78c1.71,2.9,4.02,5.18,6.95,6.83,2.93,1.66,6.23,2.48,9.89,2.48,2.85,0,5.55-.53,8.09-1.6,2.54-1.08,4.71-2.66,6.49-4.74l-5.34-5.43c-1.12,1.28-2.48,2.25-4.09,2.91-1.6.66-3.35.99-5.23.99-2.19,0-4.12-.47-5.8-1.41-1.68-.94-2.98-2.28-3.9-4.01-.44-.82-.77-1.71-1-2.67h27.35c.15-.76.27-1.47.35-2.11.08-.63.11-1.26.11-1.86,0-3.52-.75-6.65-2.25-9.41ZM994.77,849.81c.21-.87.51-1.66.9-2.4.87-1.66,2.09-2.94,3.66-3.86s3.44-1.37,5.58-1.37,3.76.41,5.15,1.22c1.4.81,2.48,1.98,3.25,3.51.43.86.75,1.82.97,2.9h-19.5Z"/>
    <path class="st1" d="M1056.32,838.67l-5.5,5.65c-.66-.71-1.4-1.22-2.22-1.53-.81-.31-1.75-.46-2.82-.46-2.35,0-4.29.73-5.81,2.22-1.53,1.48-2.29,3.79-2.29,6.94v20.4h-8.4v-36.67h8.4v3.84c.06-.1.12-.19.19-.29,2.07-2.88,5.18-4.32,9.35-4.32,1.83,0,3.49.34,4.97,1,1.48.66,2.85,1.73,4.12,3.21Z"/>
    <path class="st1" d="M1071.59,872.65c-2.04,0-4-.27-5.88-.8-1.88-.53-3.62-1.3-5.19-2.29s-2.95-2.2-4.12-3.63l5.35-5.35c1.27,1.48,2.74,2.59,4.39,3.32,1.65.74,3.53,1.11,5.61,1.11,1.88,0,3.31-.28,4.28-.84.97-.56,1.45-1.37,1.45-2.44s-.46-1.99-1.37-2.6c-.92-.61-2.1-1.13-3.55-1.57-1.45-.43-2.98-.88-4.58-1.34-1.6-.46-3.13-1.08-4.58-1.87-1.45-.79-2.64-1.87-3.55-3.25s-1.37-3.16-1.37-5.35c0-2.34.55-4.35,1.64-6.03,1.09-1.68,2.65-2.98,4.66-3.9,2.01-.92,4.42-1.37,7.22-1.37,2.95,0,5.56.52,7.83,1.57,2.27,1.04,4.16,2.61,5.69,4.7l-5.35,5.35c-1.07-1.32-2.29-2.32-3.67-2.98-1.37-.66-2.95-.99-4.74-.99-1.68,0-2.98.26-3.9.76-.92.51-1.37,1.25-1.37,2.22,0,1.02.46,1.81,1.37,2.37.92.56,2.1,1.04,3.55,1.45s2.98.85,4.58,1.34c1.6.49,3.13,1.15,4.58,1.99,1.45.84,2.64,1.96,3.55,3.36.92,1.4,1.37,3.22,1.37,5.46,0,3.57-1.25,6.39-3.74,8.48-2.5,2.09-5.88,3.13-10.16,3.13Z"/>
    <path class="st1" d="M1096.72,828.5c-1.43,0-2.61-.48-3.55-1.45-.94-.97-1.41-2.16-1.41-3.59s.47-2.62,1.41-3.59,2.13-1.45,3.55-1.45,2.67.48,3.59,1.45,1.37,2.17,1.37,3.59-.46,2.62-1.37,3.59c-.92.97-2.11,1.45-3.59,1.45ZM1092.52,871.89v-36.66h8.4v36.66h-8.4Z"/>
    <polygon class="st1" points="1133.09 835.23 1133.09 842.86 1124.3 842.86 1124.3 871.89 1115.89 871.89 1115.89 842.86 1107.11 842.86 1107.11 835.23 1115.89 835.23 1115.89 819.95 1124.3 819.95 1124.3 835.23 1133.09 835.23"/>
    <path class="st1" d="M1157.22,813.69l-9.78,12.45,3.83,3.82,12.45-9.77-6.49-6.49Z"/>
    <path class="st1" d="M1164.7,835.23v4.08c-1.05-1.22-2.31-2.24-3.78-3.05-2.17-1.19-4.65-1.79-7.45-1.79-3.31,0-6.3.86-8.98,2.55-2.67,1.71-4.78,4-6.33,6.88-1.56,2.87-2.33,6.12-2.33,9.74s.77,6.78,2.33,9.66c1.55,2.88,3.66,5.15,6.33,6.83,2.68,1.69,5.67,2.52,8.98,2.52,2.8,0,5.29-.6,7.49-1.79,1.46-.79,2.7-1.79,3.74-2.98v4.01h8.41v-36.67h-8.41ZM1162.37,861.58c-1.9,2.09-4.42,3.14-7.52,3.14-2.04,0-3.83-.48-5.38-1.42-1.55-.95-2.78-2.26-3.66-3.94-.9-1.68-1.33-3.61-1.33-5.8s.44-4.12,1.33-5.8c.89-1.68,2.12-2.99,3.66-3.94,1.56-.94,3.35-1.41,5.38-1.41s3.91.48,5.47,1.41c1.55.95,2.76,2.26,3.62,3.94.87,1.68,1.3,3.61,1.3,5.8,0,3.26-.96,5.93-2.87,8.02Z"/>
    <path class="st1" d="M1209.46,838.67l-5.5,5.65c-.66-.71-1.39-1.22-2.21-1.53-.82-.31-1.76-.46-2.83-.46-2.34,0-4.28.73-5.8,2.22-1.53,1.48-2.29,3.79-2.29,6.94v20.4h-8.41v-36.67h8.41v3.82c.06-.09.12-.18.18-.26,2.07-2.88,5.18-4.32,9.36-4.32,1.83,0,3.48.34,4.96,1,1.48.66,2.85,1.73,4.12,3.21Z"/>
    <path class="st1" d="M1217.79,828.5c-1.43,0-2.61-.48-3.55-1.45-.94-.97-1.41-2.16-1.41-3.59s.47-2.62,1.41-3.59,2.13-1.45,3.55-1.45,2.67.48,3.59,1.45c.92.97,1.37,2.17,1.37,3.59s-.46,2.62-1.37,3.59c-.92.97-2.11,1.45-3.59,1.45ZM1213.59,871.89v-36.66h8.4v36.66h-8.4Z"/>
    <path class="st1" d="M1248.19,872.65c-3.57,0-6.8-.85-9.7-2.56-2.9-1.71-5.21-4.01-6.91-6.91-1.71-2.9-2.56-6.14-2.56-9.7s.85-6.77,2.56-9.62c1.71-2.85,4.01-5.13,6.91-6.84,2.9-1.71,6.14-2.56,9.7-2.56s6.87.84,9.78,2.52c2.9,1.68,5.21,3.96,6.91,6.84,1.71,2.88,2.56,6.1,2.56,9.66s-.85,6.8-2.56,9.7c-1.71,2.9-4.01,5.21-6.91,6.91-2.9,1.71-6.16,2.56-9.78,2.56ZM1248.19,864.56c2.09,0,3.93-.47,5.54-1.41,1.6-.94,2.85-2.25,3.74-3.93.89-1.68,1.34-3.59,1.34-5.73s-.46-4.02-1.38-5.65c-.92-1.63-2.17-2.91-3.74-3.86-1.58-.94-3.41-1.41-5.5-1.41s-3.86.47-5.46,1.41c-1.6.94-2.85,2.23-3.74,3.86-.89,1.63-1.34,3.51-1.34,5.65s.45,4.05,1.34,5.73c.89,1.68,2.14,2.99,3.74,3.93,1.6.94,3.42,1.41,5.46,1.41Z"/>
  </g>
  <g>
    <path class="st1" d="M591.23,1114.09v22.57c-1.06-1.23-2.33-2.25-3.81-3.06-2.19-1.21-4.68-1.81-7.5-1.81-3.33,0-6.34.85-9.04,2.58-2.69,1.72-4.81,4.02-6.38,6.92-1.56,2.9-2.34,6.17-2.34,9.8s.78,6.83,2.34,9.73c1.57,2.89,3.7,5.19,6.38,6.88,2.7,1.69,5.71,2.53,9.04,2.53,2.82,0,5.33-.6,7.53-1.8,1.48-.8,2.74-1.81,3.78-3.01v4.05h8.46v-55.37h-8.46ZM590.46,1156.86c-.88,1.69-2.09,3.01-3.65,3.96-1.57.95-3.4,1.43-5.5,1.43s-3.86-.48-5.43-1.43c-1.56-.95-2.79-2.27-3.68-3.96-.9-1.69-1.34-3.64-1.34-5.84s.45-4.15,1.34-5.84c.9-1.7,2.13-3.01,3.68-3.97,1.57-.95,3.4-1.42,5.51-1.42s3.85.47,5.42,1.42c1.57.96,2.78,2.27,3.65,3.97.88,1.69,1.3,3.63,1.3,5.84s-.43,4.15-1.3,5.84Z"/>
    <path class="st1" d="M641.1,1140.7c-1.52-2.77-3.59-4.95-6.23-6.53-2.65-1.59-5.68-2.38-9.11-2.38s-6.76.84-9.66,2.53c-2.89,1.69-5.18,3.99-6.88,6.88-1.69,2.9-2.53,6.17-2.53,9.81s.86,6.92,2.58,9.84c1.72,2.92,4.05,5.21,7,6.88,2.94,1.67,6.26,2.49,9.96,2.49,2.87,0,5.59-.54,8.15-1.61,2.55-1.08,4.73-2.67,6.53-4.77l-5.38-5.46c-1.13,1.28-2.49,2.26-4.11,2.92-1.62.67-3.37,1-5.27,1-2.2,0-4.15-.47-5.84-1.42-1.69-.95-2.99-2.29-3.92-4.03-.45-.83-.78-1.73-1.01-2.7h27.53c.15-.76.27-1.47.35-2.11.08-.64.12-1.27.12-1.88,0-3.54-.76-6.7-2.27-9.47ZM615.39,1147.25c.2-.88.51-1.68.9-2.42.88-1.67,2.11-2.96,3.7-3.89,1.59-.93,3.46-1.38,5.61-1.38s3.79.41,5.19,1.23c1.41.82,2.5,2,3.27,3.53.44.87.76,1.84.98,2.93h-19.64Z"/>
    <path class="st1" d="M691.12,1170.24c-3.9,0-7.5-.71-10.8-2.12-3.31-1.41-6.19-3.38-8.65-5.92-2.46-2.54-4.36-5.49-5.69-8.84-1.33-3.36-2-6.96-2-10.8s.67-7.45,2-10.8c1.33-3.36,3.23-6.29,5.69-8.81,2.46-2.51,5.34-4.49,8.65-5.92,3.31-1.43,6.91-2.15,10.8-2.15,4.36,0,8.13.72,11.3,2.15,3.18,1.44,6,3.38,8.46,5.84l-6,6c-1.59-1.74-3.53-3.1-5.81-4.08-2.28-.97-4.93-1.46-7.96-1.46-2.67,0-5.1.46-7.31,1.38-2.2.92-4.11,2.24-5.73,3.96-1.61,1.72-2.86,3.76-3.73,6.11-.87,2.36-1.31,4.95-1.31,7.77s.44,5.41,1.31,7.77c.87,2.36,2.12,4.4,3.73,6.11,1.62,1.72,3.52,3.04,5.73,3.96,2.2.92,4.64,1.38,7.31,1.38,3.28,0,6.06-.5,8.34-1.5,2.28-1,4.22-2.37,5.81-4.11l6,6c-2.46,2.51-5.36,4.49-8.69,5.92-3.33,1.43-7.15,2.15-11.46,2.15Z"/>
    <path class="st1" d="M722.34,1125.79c-1.44,0-2.63-.49-3.58-1.46-.95-.97-1.42-2.18-1.42-3.61s.47-2.64,1.42-3.61c.95-.97,2.14-1.46,3.58-1.46s2.69.49,3.61,1.46c.92.98,1.38,2.18,1.38,3.61s-.46,2.64-1.38,3.61c-.92.98-2.13,1.46-3.61,1.46ZM718.11,1169.47v-36.91h8.46v36.91h-8.46Z"/>
    <path class="st1" d="M769.78,1146.32v23.15h-8.46v-21.3c0-2.46-.77-4.48-2.34-6.08-1.57-1.59-3.57-2.38-6.04-2.38-1.64,0-3.1.36-4.39,1.08-1.28.71-2.28,1.72-2.99,3-.72,1.27-1.08,2.74-1.08,4.38v21.3h-8.46v-36.91h8.46v4.16c1.01-1.21,2.23-2.23,3.65-3.05,2.18-1.25,4.62-1.88,7.34-1.88s5.23.7,7.39,2.12c2.15,1.4,3.84,3.23,5.07,5.46s1.84,4.55,1.84,6.96Z"/>
    <path class="st1" d="M810.43,1140.7c-1.51-2.77-3.58-4.95-6.23-6.53-2.64-1.59-5.68-2.38-9.11-2.38s-6.76.84-9.65,2.53c-2.9,1.69-5.19,3.99-6.88,6.88-1.69,2.9-2.54,6.17-2.54,9.81s.87,6.92,2.58,9.84c1.72,2.92,4.05,5.21,7,6.88,2.95,1.67,6.27,2.49,9.96,2.49,2.87,0,5.59-.54,8.15-1.61,2.57-1.08,4.74-2.67,6.53-4.77l-5.38-5.46c-1.12,1.28-2.49,2.26-4.11,2.92-1.61.67-3.37,1-5.26,1-2.21,0-4.15-.47-5.84-1.42-1.7-.95-3-2.29-3.93-4.03-.44-.83-.77-1.73-1.01-2.7h27.54c.15-.76.26-1.47.35-2.11.07-.64.11-1.27.11-1.88,0-3.54-.75-6.7-2.27-9.47ZM784.72,1147.25c.21-.88.52-1.68.91-2.42.87-1.67,2.1-2.96,3.68-3.89,1.59-.93,3.46-1.38,5.62-1.38,2.05,0,3.78.41,5.19,1.23,1.4.82,2.49,2,3.27,3.53.43.87.75,1.84.97,2.93h-19.64Z"/>
    <path class="st1" d="M876.99,1145.63v23.84h-8.46v-22c0-2.46-.77-4.37-2.31-5.73-1.54-1.35-3.43-2.04-5.69-2.04-1.49,0-2.85.31-4.07.93-1.23.61-2.21,1.5-2.92,2.65-.72,1.16-1.08,2.55-1.08,4.19v22h-8.46v-22c0-2.46-.77-4.37-2.31-5.73-1.54-1.35-3.43-2.04-5.69-2.04-1.54,0-2.91.31-4.11.93-1.21.61-2.17,1.5-2.88,2.65-.72,1.16-1.08,2.55-1.08,4.19v22h-8.46v-36.91h8.46v3.77c1-1.13,2.17-2.07,3.53-2.81,2.11-1.15,4.47-1.73,7.07-1.73s4.98.56,7.07,1.69c2.01,1.08,3.61,2.57,4.8,4.48,1.33-1.87,3.03-3.36,5.08-4.44,2.18-1.15,4.58-1.73,7.2-1.73s5.07.56,7.23,1.69c2.15,1.13,3.87,2.72,5.15,4.77,1.28,2.05,1.92,4.51,1.92,7.38Z"/>
    <path class="st1" d="M912.44,1132.56v4.11c-1.06-1.23-2.33-2.26-3.82-3.07-2.18-1.21-4.67-1.81-7.49-1.81-3.34,0-6.34.85-9.04,2.58-2.69,1.72-4.81,4.02-6.38,6.92-1.57,2.9-2.34,6.17-2.34,9.8s.77,6.83,2.34,9.73c1.57,2.89,3.7,5.19,6.38,6.88,2.7,1.69,5.7,2.53,9.04,2.53,2.82,0,5.33-.6,7.53-1.8,1.48-.8,2.74-1.81,3.78-3.01v4.05h8.45v-36.91h-8.45ZM910.09,1159.09c-1.92,2.11-4.45,3.16-7.57,3.16-2.06,0-3.86-.48-5.43-1.43-1.56-.95-2.79-2.27-3.68-3.96-.91-1.69-1.35-3.64-1.35-5.84s.45-4.15,1.35-5.84c.9-1.7,2.13-3.01,3.68-3.97,1.57-.95,3.37-1.42,5.43-1.42s3.93.47,5.5,1.42c1.57.96,2.78,2.27,3.65,3.97.87,1.69,1.3,3.63,1.3,5.84,0,3.28-.96,5.97-2.88,8.07Z"/>
    <path class="st1" d="M972.42,1114.09v22.57c-1.06-1.23-2.33-2.25-3.81-3.06-2.18-1.21-4.68-1.81-7.5-1.81-3.33,0-6.34.85-9.03,2.58-2.7,1.72-4.82,4.02-6.38,6.92-1.57,2.9-2.35,6.17-2.35,9.8s.78,6.83,2.35,9.73c1.56,2.89,3.68,5.19,6.38,6.88,2.69,1.69,5.7,2.53,9.03,2.53,2.82,0,5.33-.6,7.54-1.8,1.47-.8,2.73-1.81,3.77-3.01v4.05h8.46v-55.37h-8.46ZM971.64,1156.86c-.87,1.69-2.09,3.01-3.64,3.96-1.57.95-3.4,1.43-5.51,1.43s-3.86-.48-5.42-1.43c-1.57-.95-2.8-2.27-3.7-3.96-.9-1.69-1.34-3.64-1.34-5.84s.45-4.15,1.34-5.84c.9-1.7,2.13-3.01,3.7-3.97,1.56-.95,3.39-1.42,5.5-1.42s3.86.47,5.43,1.42c1.56.96,2.78,2.27,3.64,3.97.88,1.69,1.31,3.63,1.31,5.84s-.44,4.15-1.31,5.84Z"/>
    <path class="st1" d="M1022.29,1140.7c-1.51-2.77-3.58-4.95-6.23-6.53-2.64-1.59-5.68-2.38-9.11-2.38s-6.76.84-9.65,2.53c-2.9,1.69-5.19,3.99-6.88,6.88-1.69,2.9-2.54,6.17-2.54,9.81s.87,6.92,2.58,9.84c1.72,2.92,4.05,5.21,7,6.88,2.95,1.67,6.27,2.49,9.96,2.49,2.87,0,5.59-.54,8.15-1.61,2.57-1.08,4.74-2.67,6.54-4.77l-5.38-5.46c-1.12,1.28-2.49,2.26-4.11,2.92-1.61.67-3.37,1-5.26,1-2.21,0-4.15-.47-5.84-1.42-1.7-.95-3-2.29-3.93-4.03-.44-.83-.77-1.73-1.01-2.7h27.54c.15-.76.26-1.47.35-2.11.07-.64.11-1.27.11-1.88,0-3.54-.75-6.7-2.27-9.47ZM996.58,1147.25c.21-.88.52-1.68.91-2.42.87-1.67,2.1-2.96,3.68-3.89,1.59-.93,3.46-1.38,5.62-1.38,2.05,0,3.78.41,5.19,1.23,1.4.82,2.49,2,3.27,3.53.43.87.75,1.84.97,2.93h-19.64Z"/>
    <path class="st1" d="M1070.01,1115.64h-6.15l-22.15,53.83h9.38l4.14-10.38h23.14l4.1,10.38h9.54l-22-53.83ZM1058.29,1151.39l8.55-21.45,8.48,21.45h-17.03Z"/>
    <path class="st1" d="M1132.29,1146.32v23.15h-8.46v-21.3c0-2.46-.78-4.48-2.34-6.08-1.57-1.59-3.58-2.38-6.04-2.38-1.65,0-3.1.36-4.39,1.08-1.28.71-2.28,1.72-3,3-.71,1.27-1.07,2.74-1.07,4.38v21.3h-8.46v-36.91h8.46v4.16c1-1.21,2.22-2.23,3.64-3.05,2.19-1.25,4.63-1.88,7.35-1.88s5.23.7,7.38,2.12c2.16,1.4,3.85,3.23,5.08,5.46,1.23,2.23,1.84,4.55,1.84,6.96Z"/>
    <path class="st1" d="M1145.21,1125.79c-1.44,0-2.63-.49-3.58-1.46-.95-.97-1.42-2.18-1.42-3.61s.47-2.64,1.42-3.61c.95-.97,2.14-1.46,3.58-1.46s2.69.49,3.61,1.46c.92.98,1.38,2.18,1.38,3.61s-.46,2.64-1.38,3.61c-.92.98-2.13,1.46-3.61,1.46ZM1140.98,1169.47v-36.91h8.46v36.91h-8.46Z"/>
    <path class="st1" d="M1216.42,1145.63v23.84h-8.46v-22c0-2.46-.77-4.37-2.31-5.73-1.54-1.35-3.43-2.04-5.69-2.04-1.49,0-2.84.31-4.07.93-1.23.61-2.21,1.5-2.92,2.65-.72,1.16-1.08,2.55-1.08,4.19v22h-8.46v-22c0-2.46-.77-4.37-2.31-5.73-1.54-1.35-3.43-2.04-5.69-2.04-1.54,0-2.91.31-4.11.93-1.2.61-2.17,1.5-2.88,2.65-.72,1.16-1.08,2.55-1.08,4.19v22h-8.46v-36.91h8.46v3.78c.99-1.13,2.17-2.08,3.54-2.82,2.1-1.15,4.46-1.73,7.07-1.73s4.97.56,7.07,1.69c2,1.07,3.59,2.55,4.8,4.47,1.33-1.86,3.02-3.35,5.07-4.43,2.18-1.15,4.58-1.73,7.2-1.73s5.07.56,7.23,1.69c2.15,1.13,3.87,2.72,5.15,4.77,1.28,2.05,1.92,4.51,1.92,7.38Z"/>
    <path class="st1" d="M1251.88,1132.56v4.1c-1.06-1.23-2.33-2.25-3.81-3.06-2.18-1.21-4.68-1.81-7.5-1.81-3.33,0-6.34.85-9.04,2.58-2.69,1.72-4.81,4.02-6.38,6.92-1.56,2.9-2.34,6.17-2.34,9.8s.78,6.83,2.34,9.73c1.57,2.89,3.7,5.19,6.38,6.88,2.7,1.69,5.71,2.53,9.04,2.53,2.82,0,5.33-.6,7.53-1.8,1.48-.8,2.74-1.81,3.78-3.01v4.05h8.46v-36.91h-8.46ZM1249.53,1159.09c-1.92,2.11-4.45,3.16-7.57,3.16-2.05,0-3.86-.48-5.43-1.43-1.56-.95-2.79-2.27-3.68-3.96-.9-1.69-1.34-3.64-1.34-5.84s.45-4.15,1.34-5.84c.9-1.7,2.13-3.01,3.68-3.97,1.57-.95,3.38-1.42,5.43-1.42s3.94.47,5.5,1.42c1.57.96,2.78,2.27,3.65,3.97.88,1.69,1.31,3.63,1.31,5.84,0,3.28-.97,5.97-2.89,8.07Z"/>
    <path class="st1" d="M1295.56,1158.24l5.54,5.61c-1.75,2.06-3.86,3.63-6.35,4.73-2.05.91-4.23,1.44-6.55,1.59l-.57,1.72c1.51.3,2.81.83,3.93,1.61,1.94,1.36,2.92,3.06,2.92,5.12s-.94,3.66-2.81,5c-1.87,1.33-4.32,2-7.34,2-1.9,0-3.57-.22-5-.69-1.44-.46-2.82-1.13-4.15-2l3.46-4.39c.56.52,1.25.94,2.08,1.27.81.34,1.81.5,2.99.5,1.33,0,2.3-.18,2.89-.54.58-.36.88-.79.88-1.3,0-.57-.26-1.07-.8-1.51-.54-.43-1.39-.65-2.58-.65h-4l2.1-6.56c-1.9-.41-3.68-1.1-5.36-2.06-2.95-1.69-5.26-4-6.96-6.92-1.69-2.92-2.53-6.18-2.53-9.76s.84-6.91,2.53-9.81c1.7-2.89,4.01-5.19,6.96-6.88,2.95-1.69,6.24-2.53,9.88-2.53,2.87,0,5.55.55,8.03,1.65,2.49,1.11,4.6,2.69,6.35,4.73l-5.54,5.62c-1.08-1.28-2.37-2.25-3.89-2.89-1.51-.64-3.17-.96-4.96-.96-2.11,0-3.96.47-5.58,1.43-1.62.95-2.87,2.24-3.77,3.88-.9,1.64-1.34,3.56-1.34,5.77s.45,4.06,1.34,5.73c.9,1.66,2.15,2.97,3.77,3.92s3.47,1.42,5.58,1.42c1.79,0,3.45-.33,4.96-.97,1.52-.64,2.81-1.6,3.89-2.88Z"/>
    <path class="st1" d="M1334.69,1117.18c-.66.92-1.38,1.61-2.15,2.08-.77.46-1.82.69-3.16.69-1.18,0-2.28-.32-3.31-.93-1.03-.61-2.13-1.22-3.31-1.81-1.18-.58-2.62-.88-4.31-.88-2,0-3.75.5-5.23,1.5-1.49,1-2.97,2.34-4.46,4.03l4.54,4.54c.71-.92,1.46-1.62,2.23-2.08.77-.46,1.79-.69,3.07-.69s2.35.3,3.35.89,2.09,1.19,3.27,1.81c1.18.61,2.62.92,4.31.92,2,0,3.75-.5,5.23-1.5,1.49-1,2.97-2.34,4.46-4.04l-4.54-4.53Z"/>
    <path class="st1" d="M1333.16,1132.56v4.1c-1.06-1.23-2.33-2.25-3.81-3.06-2.18-1.21-4.68-1.81-7.5-1.81-3.33,0-6.34.85-9.03,2.58-2.7,1.72-4.82,4.02-6.38,6.92-1.57,2.9-2.35,6.17-2.35,9.8s.78,6.83,2.35,9.73c1.56,2.89,3.68,5.19,6.38,6.88,2.69,1.69,5.7,2.53,9.03,2.53,2.82,0,5.33-.6,7.54-1.8,1.47-.8,2.73-1.81,3.77-3.01v4.05h8.46v-36.91h-8.46ZM1330.82,1159.09c-1.92,2.11-4.45,3.16-7.58,3.16-2.05,0-3.86-.48-5.42-1.43-1.57-.95-2.8-2.27-3.69-3.96-.9-1.69-1.34-3.64-1.34-5.84s.45-4.15,1.34-5.84c.9-1.7,2.13-3.01,3.69-3.97,1.56-.95,3.37-1.42,5.42-1.42s3.94.47,5.51,1.42c1.56.96,2.78,2.27,3.64,3.97.88,1.69,1.31,3.63,1.31,5.84,0,3.28-.97,5.97-2.88,8.07Z"/>
    <path class="st1" d="M1367.92,1170.24c-3.59,0-6.84-.86-9.77-2.58-2.92-1.72-5.24-4.04-6.96-6.96s-2.58-6.18-2.58-9.77.86-6.82,2.58-9.69c1.72-2.87,4.04-5.17,6.96-6.88,2.92-1.72,6.18-2.58,9.77-2.58s6.92.85,9.84,2.54c2.92,1.69,5.24,3.99,6.96,6.88,1.72,2.9,2.58,6.14,2.58,9.73s-.86,6.84-2.58,9.77c-1.72,2.92-4.04,5.24-6.96,6.96-2.92,1.72-6.2,2.58-9.84,2.58ZM1367.92,1162.08c2.1,0,3.96-.47,5.58-1.42,1.62-.95,2.87-2.27,3.77-3.96.9-1.69,1.34-3.61,1.34-5.77s-.46-4.05-1.38-5.69c-.92-1.64-2.18-2.93-3.77-3.88-1.59-.95-3.44-1.42-5.54-1.42s-3.88.47-5.5,1.42c-1.62.95-2.87,2.24-3.77,3.88-.9,1.64-1.34,3.54-1.34,5.69s.45,4.08,1.34,5.77c.9,1.69,2.15,3.01,3.77,3.96,1.62.95,3.45,1.42,5.5,1.42Z"/>
  </g>
</svg>